<?xml version="1.0" encoding="utf-8"?>
<!-- Generator: Adobe Illustrator 25.1.0, SVG Export Plug-In . SVG Version: 6.00 Build 0)  -->
<svg version="1.1" id="Layer_1" xmlns="http://www.w3.org/2000/svg" xmlns:xlink="http://www.w3.org/1999/xlink" x="0px" y="0px"
	 viewBox="0 0 304 59.85" style="enable-background:new 0 0 304 59.85;" xml:space="preserve">
<style type="text/css">
	.st0{fill:#333333;}
	.st1{fill:#231F20;}
	.st2{fill:#29ABE2;}
	.st3{fill:none;stroke:#231F20;stroke-width:3;stroke-miterlimit:10;}
	.st4{enable-background:new    ;}
	.st5{clip-path:url(#SVGID_2_);enable-background:new    ;}
	.st6{fill:#846819;}
	.st7{fill:#896C1A;}
	.st8{fill:#8E701B;}
	.st9{fill:#93741C;}
	.st10{fill:#98781D;}
	.st11{fill:#9D7C1E;}
	.st12{fill:#A2801F;}
	.st13{fill:#A78420;}
	.st14{fill:#AC8821;}
	.st15{fill:#B18C22;}
	.st16{fill:#B69023;}
	.st17{fill:#886B1A;}
	.st18{fill:#C39A26;}
	.st19{clip-path:url(#SVGID_4_);enable-background:new    ;}
	.st20{clip-path:url(#SVGID_6_);enable-background:new    ;}
	.st21{clip-path:url(#SVGID_8_);enable-background:new    ;}
	.st22{clip-path:url(#SVGID_10_);enable-background:new    ;}
	.st23{fill:#DAAC2A;}
	.st24{clip-path:url(#SVGID_12_);enable-background:new    ;}
	.st25{opacity:0.61;}
	.st26{fill:#FDEA31;}
	.st27{clip-path:url(#SVGID_14_);enable-background:new    ;}
	.st28{clip-path:url(#SVGID_16_);enable-background:new    ;}
	.st29{clip-path:url(#SVGID_18_);enable-background:new    ;}
	.st30{clip-path:url(#SVGID_20_);enable-background:new    ;}
	.st31{clip-path:url(#SVGID_22_);enable-background:new    ;}
	.st32{clip-path:url(#SVGID_24_);enable-background:new    ;}
	.st33{opacity:0.51;}
	.st34{clip-path:url(#SVGID_26_);enable-background:new    ;}
	.st35{clip-path:url(#SVGID_28_);enable-background:new    ;}
	.st36{clip-path:url(#SVGID_30_);enable-background:new    ;}
	.st37{clip-path:url(#SVGID_32_);enable-background:new    ;}
	.st38{clip-path:url(#SVGID_34_);enable-background:new    ;}
	.st39{clip-path:url(#SVGID_36_);enable-background:new    ;}
	.st40{fill:none;stroke:#FDC831;stroke-width:4;stroke-linecap:round;stroke-miterlimit:10;}
	.st41{fill:#FDC831;}
	.st42{fill:#2D9CDB;}
	.st43{fill:#FFFFFF;}
	.st44{fill:none;stroke:#000000;stroke-width:2;stroke-linecap:round;stroke-miterlimit:10;}
	.st45{fill:none;stroke:#000000;stroke-width:2;stroke-linecap:round;stroke-miterlimit:10;stroke-dasharray:26.2252,11.6557;}
</style>
<g>
	<g>
		<path d="M2,59.56V30.72h5.43v28.84H2z M3.98,36.15v-5.43h16.96v5.43H3.98z M3.98,48.21v-5.43l14.78-0.02v5.43L3.98,48.21z"/>
		<path d="M42.77,59.85c-2.12,0-3.96-0.44-5.54-1.32c-1.58-0.88-2.81-2.12-3.68-3.72c-0.87-1.6-1.31-3.46-1.31-5.59v-8.17
			c0-2.13,0.44-3.99,1.31-5.59c0.87-1.6,2.1-2.84,3.68-3.72c1.58-0.88,3.43-1.32,5.54-1.32c2.12,0,3.96,0.44,5.54,1.32
			c1.58,0.88,2.81,2.12,3.68,3.72c0.87,1.6,1.31,3.46,1.31,5.59v8.17c0,2.13-0.44,3.99-1.31,5.59c-0.87,1.6-2.1,2.84-3.68,3.72
			C46.73,59.41,44.89,59.85,42.77,59.85z M42.77,54.42c1.48,0,2.67-0.46,3.56-1.38c0.89-0.92,1.34-2.15,1.34-3.68v-8.45
			c0-1.53-0.45-2.76-1.34-3.68c-0.89-0.92-2.08-1.38-3.56-1.38c-1.48,0-2.67,0.46-3.56,1.38c-0.89,0.92-1.34,2.15-1.34,3.68v8.45
			c0,1.53,0.45,2.76,1.34,3.68C40.1,53.96,41.29,54.42,42.77,54.42z"/>
		<path d="M67.18,59.56V30.7h5.83v28.86H67.18z M69.34,47.95v-5.04h10.04c0.86,0,1.54-0.33,2.05-0.98c0.51-0.65,0.76-1.52,0.76-2.61
			c0-1.08-0.25-1.95-0.76-2.61c-0.51-0.65-1.19-0.98-2.05-0.98H69.34V30.7h10.47c1.6,0,3,0.36,4.19,1.07
			c1.2,0.71,2.13,1.72,2.79,3.01c0.66,1.3,0.99,2.81,0.99,4.54c0,1.73-0.33,3.25-0.99,4.54c-0.66,1.3-1.59,2.3-2.79,3.01
			c-1.2,0.71-2.6,1.07-4.19,1.07H69.34z M82.41,59.56l-7-12.5l5.81-0.91L89,59.56H82.41z"/>
		<path d="M111.32,59.85c-2.21,0-4.09-0.42-5.64-1.26c-1.55-0.84-2.74-2.06-3.56-3.66c-0.82-1.6-1.23-3.54-1.23-5.83v-7.91
			c0-2.27,0.41-4.21,1.23-5.82c0.82-1.61,2.01-2.83,3.56-3.68c1.55-0.85,3.43-1.27,5.64-1.27c1.82,0,3.45,0.39,4.87,1.17
			c1.42,0.78,2.6,1.91,3.53,3.4c0.93,1.49,1.58,3.28,1.93,5.38h-5.63c-0.22-0.96-0.56-1.78-0.99-2.45c-0.44-0.67-0.97-1.18-1.6-1.54
			c-0.63-0.36-1.33-0.54-2.11-0.54c-1.53,0-2.72,0.47-3.55,1.4c-0.83,0.93-1.25,2.24-1.25,3.94v7.91c0,1.69,0.42,3,1.25,3.93
			c0.83,0.93,2.02,1.39,3.55,1.39c1.19,0,2.19-0.36,3.01-1.07c0.82-0.71,1.38-1.73,1.69-3.05h5.63c-0.37,2.02-1.02,3.75-1.95,5.18
			c-0.93,1.43-2.11,2.52-3.52,3.26C114.77,59.48,113.15,59.85,111.32,59.85z"/>
		<path d="M134.74,59.56V30.72h5.43v28.84H134.74z M136.7,35.95v-5.24h17.35v5.24H136.7z M136.7,47.85v-5.24h15.17v5.24H136.7z
			 M136.7,59.56v-5.04h17.35v5.04H136.7z"/>
		<path d="M167.14,59.56V30.72h5.43v28.84H167.14z M169.12,36.15v-5.43h16.96v5.43H169.12z M169.12,48.21v-5.43l14.78-0.02v5.43
			L169.12,48.21z"/>
		<path d="M203.21,30.72v28.84h-5.63V30.72H203.21z"/>
		<path d="M217.28,59.56V30.72h5.43v28.84H217.28z M219.25,35.95v-5.24h17.35v5.24H219.25z M219.25,47.85v-5.24h15.17v5.24H219.25z
			 M219.25,59.56v-5.04h17.35v5.04H219.25z"/>
		<path d="M249.69,59.56V30.72h5.43v28.84H249.69z M252.11,59.56v-5.24H269v5.24H252.11z"/>
		<path d="M281.09,59.56V30.72h5.43v28.84H281.09z M283.83,59.56v-5.24h6.92c1.81,0,3.22-0.43,4.21-1.29c1-0.86,1.5-2.08,1.5-3.65
			v-8.49c0-1.57-0.5-2.79-1.5-3.65c-1-0.86-2.4-1.29-4.21-1.29h-6.92v-5.24h6.8c3.62,0,6.42,0.9,8.4,2.71
			c1.98,1.8,2.96,4.35,2.96,7.63v8.17c0,3.28-0.99,5.82-2.98,7.63c-1.98,1.8-4.79,2.71-8.41,2.71H283.83z"/>
	</g>
	<path class="st41" d="M2,24.94c-0.85,0-1.64-0.55-1.91-1.41c-0.33-1.05,0.26-2.18,1.32-2.5C2.08,20.82,69.97,0,151.87,0
		s150.04,20.82,150.72,21.03c1.05,0.33,1.65,1.45,1.32,2.5c-0.33,1.05-1.44,1.65-2.5,1.32C300.74,24.64,233.15,4,151.87,4
		C70.57,4,3.27,24.64,2.59,24.85C2.4,24.91,2.2,24.94,2,24.94z"/>
</g>
</svg>
